<svg xmlns="http://www.w3.org/2000/svg" width="250" height="250" viewBox="0 0 250 250">
<!-- SVG created with Arrow, by QuiverAI (https://quiver.ai) -->
  <path d="m228.9 46.9-85.63 6.8c-8.8 0.73-14.07 9.51-14.07 17.21v86.25c0 9.11 6.71 16.23 14.75 16.8l25.96 3.67v8.46l-6-0.34-7.91 3.44c-2.52 1.1-2.73 2.53-2.73 3.29v2.43l52.26 7.4c1.27 0.3 2.2-0.23 2.84-0.61l5.13-3.08c1.4-0.79 1.05-1.81 0.93-3.46-0.19-2.73-1.69-2.9-2.63-3.1l-12.63-2.13v-8.42l28.73 2.46c10.27 0.89 17.09-8.06 17.09-15.18v-104c0-9.41-7.49-18.38-16.09-17.92z" fill="#222E36"/>
  <path d="m227.1 56.91-82.43 5.83c-4.96 0.35-7.29 4.78-7.29 8.57v85.91c0 4.85 2.8 7.94 7.02 8.29l82.37 8.05c5.31 0.51 8.16-4.28 8.16-7.49v-101.3c0-4.16-3.22-8.17-7.83-7.87z" fill="#415661"/>
  <path d="m209.8 98.2-11.08-24.39-15.6-8.5-15.94 11.71-8.89 21.07 6.64 4.58 2.25-13.21 16.4-15.18 16.17 15.64 4.92 25.29-6.75 30.6-14.8 10.07-15.94-20.84-5.26 6.7 5.26 10.97 15.94 12.14 15.6-8.97 11.08-23.52v-34.16z" fill="#F99D26"/>
  <path d="m167.2 77.7 15.94-4.06 15.6 0.68 1.03 15.6-16.17-15.64-16.4 15.18v-11.76z" fill="#D86A00"/>
  <path d="m209.8 98.2-5.13 17.01 5.13 17.15v-34.16z" fill="#D86A00"/>
  <path d="m198.7 155.9h-15.6l14.8-10.07 0.8 10.07z" fill="#D86A00"/>
  <path d="m167.2 152.7 13.55 1.95-13.55-4.49v2.54z" fill="#D86A00"/>
  <path d="m147.5 96.82 39.4 22.59-14.47 4.53 11.15 13.85-6.35 5.77-10.71-14.78-8.6 11.48-10.42-43.44z" fill="#F99D26"/>
  <path d="m21.09 46.9 85.63 6.8c8.8 0.73 13.07 9.51 13.07 17.21v86.25c0 9.11-6.71 16.23-14.75 16.8l-25.53 3.43v8.46l6-0.34 7.48 3.11c2.52 1.1 3.08 2.47 3.08 3.86v2.2l-51.46 7.63c-1.27 0.3-2.2-0.23-2.84-0.61l-6.05-3.69c-1.17-0.62-1.23-1.32-1.05-3.1 0.3-3 1.59-2.73 3.15-3.2l12.26-1.78v-8.65l-28.73 2.81c-10.27 0.89-16.35-8.81-16.35-15.93v-103.3c0-8.8 7.49-18.38 16.09-17.92z" fill="#222E36"/>
  <path d="m21.77 56.68 83.64 6.06c4.61 0.35 6.4 4.78 6.4 8.57v85.91c0 4.85-3.5 8.06-7.04 8.29l-82.36 8.05c-5.31 0.51-7.91-3.93-7.91-7.49v-101.3c0-4.16 2.66-8.4 7.27-8.1z" fill="#415661"/>
  <path d="m38.61 99.62 11.81-25.81 15.6-8.5 16.4 11.6 9.19 21.86 0.11 7.75-8.03-3.85-1.27-25.31-16.4-3.08-16.89 14.32-4.92 26.61-5.6 16.58v-32.17z" fill="#29A9ED"/>
  <path d="m50.42 73.81 15.6-0.62 16.4 4.17 0.56 0.74-0.56-1.19-16.4-11.6-15.6 8.5z" fill="#1C89CB"/>
  <path d="m38.61 98.77 10.52-10.17 1.29-14.79-11.81 24.96z" fill="#0B639E"/>
  <path d="m38.61 131.8 10.52 23.12 16.4 9.94 16.89-12.14 6.24-12.58-4.02-6.7-2.22 18.83-16.89 3.13-16.4-15.26-4.92-24.92-5.6 16.58z" fill="#29A9ED"/>
  <path d="m49.13 154.9 16.4 0.48 16.89-2.68-0.8 0.58-16.09 11.56-16.4-9.94z" fill="#0B639E"/>
  <path d="m38.61 131.8 10.52 8.34v14.78l-10.52-23.12z" fill="#0B639E"/>
  <path d="m65.3 96.82 39.74 21.85-14.47 5.27 11.15 13.85-6 5.02-11.08-14.03-9.01 11.48-10.33-43.44z" fill="#29A9ED"/>
</svg>